<svg xmlns="http://www.w3.org/2000/svg" xmlns:xlink="http://www.w3.org/1999/xlink" id="Livello_1" x="0px" y="0px" viewBox="0 0 331.9 44.4" style="enable-background:new 0 0 331.9 44.4;" xml:space="preserve"><style type="text/css">	.st0{fill:#07152B;}	.st1{fill:#E29C00;}</style><g>	<path class="st1" d="M12.9,8.8c0.6,2.6,1.6,6.6,3,12.2l0.9,3.6c0.1,0.5-0.1,0.9-0.6,1.3c-0.5,0.4-1.1,0.7-1.8,0.8   c-0.4,0.1-0.7,0-1-0.1c-0.3-0.1-0.5-0.4-0.5-0.7c-0.7-2.9-1.4-5.9-2.2-9c-0.4,1.3-0.8,2.5-1.3,3.6c-0.1,0.2-0.2,0.4-0.4,0.6   c-0.2,0.3-0.6,0.5-0.9,0.8c-0.4,0.2-0.8,0.4-1.2,0.4c-0.7,0.1-1.1-0.1-1.4-0.5c-0.5-0.8-1-1.7-1.5-2.6l0,1c0,1.8-0.1,4.1-0.2,7   c0,0.5-0.3,0.9-0.9,1.3c-0.6,0.4-1.2,0.7-1.8,0.7c-0.3,0-0.6,0-0.8-0.1C0.1,29,0,28.8,0,28.5C0.1,21,0.2,15.4,0.4,11.8   c0-0.5,0.3-0.9,0.9-1.3C1.9,10,2.5,9.8,3.1,9.7c0.3-0.1,0.6-0.1,0.9,0s0.4,0.2,0.5,0.4c0.9,2.3,1.8,4.4,2.9,6.3   C8,14.3,8.5,12,9.1,9.7C9.1,9.3,9.4,9,9.9,8.7c0.5-0.3,1-0.5,1.6-0.6c0.6-0.1,1,0.1,1.2,0.4C12.8,8.5,12.8,8.6,12.9,8.8z"></path>	<path class="st1" d="M26,5.7c0.6-0.4,1.1-0.7,1.7-0.8c0.7-0.1,1,0.1,1.2,0.5c0.9,3.3,1.7,6.2,2.3,8.6c0.6,2.4,1,4.8,1.4,7.2   c0.4,3.2,0.6,6.1,0.4,8.7c-0.1,2-0.5,3.9-1,5.5c-0.6,1.7-1.4,3-2.7,4.1c-1,0.8-2.1,1.3-3.2,1.5c-1,0.1-2.1,0-3.2-0.4   c-1.1-0.4-2.1-1-3.1-1.8c-0.2-0.2-0.3-0.4-0.3-0.5c-0.1-0.4,0.2-0.9,0.7-1.3c0.6-0.5,1.1-0.7,1.8-0.8c0.4-0.1,0.8,0,1,0.2   c0.1,0.1,0.4,0.3,0.9,0.7c0.5,0.4,0.9,0.7,1.4,0.9c0.5,0.2,0.9,0.3,1.3,0.3c0.2,0,0.3-0.1,0.4-0.1c0.4-0.2,0.7-0.6,0.9-1.2   c0.2-0.6,0.4-1.1,0.5-1.6c0.1-0.5,0.2-0.8,0.2-0.9c0.3-1.3,0.5-2.7,0.6-4.2c0-1.4,0-3-0.2-4.8c-0.1-1.4-0.3-2.4-0.4-3.1   c-0.4,1.1-1,1.9-1.6,2.6c-0.7,0.7-2.2,1.2-3.2,1.3c-1.5,0.2-2.6-0.3-3.2-1.6c-0.6-1.3-1.1-2.9-1.4-4.8L19,18.5   c-0.4-3.3-0.5-6.5-0.2-9.5c0-0.4,0.3-0.8,0.9-1.2c0.6-0.4,1.2-0.6,1.7-0.7c0.3,0,0.5,0,0.7,0.1c0.2,0.1,0.3,0.3,0.3,0.5   c-0.2,2.5-0.1,5.2,0.2,8.1c0.1,0.9,0.2,1.6,0.2,2.1c0.1,0.8,0.2,1.7,0.5,2.7c0.6,1.5,1,1.9,1.4,1.9c0.3,0,0.6-0.5,0.7-1   c0.4-1,0.9-2.6,1-5.1c0.1-1.8,0-3.9-0.4-6.1C26,9.9,26,9.5,25.9,9.1L25.3,7C25.2,6.6,25.4,6.1,26,5.7z"></path>	<path class="st1" d="M67.2,6.1c1.2-0.7,2.3-1,3.5-1c0.7,0,1.2,0.1,1.6,0.4c0.4,0.3,0.6,0.7,0.6,1.3c-0.1,1.6-0.1,2.9-0.1,3.8   c-0.2,5.5-0.6,10.1-1.1,13.9c-0.5,3.8-1.7,7.4-3.5,10.8c-1.8,3.4-4.5,5.6-8.1,6.6c-1.2,0.3-2.4,0.5-3.5,0.5c-2.7,0-5-0.8-7.1-2.4   c-2-1.6-3.2-3.8-3.5-6.5C46,32.5,46,31.7,46,31.2c0-2.9,0.4-5.9,1.3-8.9c0.9-3,2.2-6.7,3.8-11c0.5-1.1,1.1-2.6,1.7-4.3   c0.3-0.7,0.9-1.3,1.9-1.8c1-0.5,2.1-0.7,3.1-0.7c0.7,0,1.2,0.1,1.6,0.4c0.4,0.3,0.6,0.7,0.6,1.2c0,0.2,0,0.4-0.1,0.8   c-0.8,2.4-1.5,4.3-2,5.5c-1.2,3.4-2.2,6.2-2.8,8.5c-0.7,2.3-1.1,4.6-1.4,7c-0.1,1-0.1,1.8-0.1,2.4c0,2.5,0.6,4.3,1.8,5.4   c0.4,0.4,0.9,0.7,1.5,1c0.6,0.3,1.2,0.5,1.8,0.5l0.5,0.1c0,0,0.1-0.1,0.3-0.2c1.1-0.7,1.9-1.8,2.6-3.4c0.7-1.6,1.1-3.1,1.3-4.3   c0.2-1.3,0.5-3.3,0.9-6c0.3-2.2,0.5-4.7,0.7-7.3c0.2-2.6,0.3-5.2,0.5-7.7C65.5,7.5,66.1,6.8,67.2,6.1z"></path>	<path class="st1" d="M99.2,26.9c1.1-0.5,2.1-0.7,3.2-0.7c1.4,0,2.1,0.4,2.1,1.3c0,0.3-0.1,0.5-0.2,0.9c-1.7,4-3,7.9-3.9,11.7   c-0.2,0.8-0.8,1.6-1.8,2.3c-0.4,0.5-1.1,1-1.9,1.4c-0.9,0.4-1.7,0.6-2.5,0.6c-0.7,0-1.3-0.1-1.7-0.4c-0.4-0.3-0.7-0.8-0.7-1.4   c-0.2-2.7-1.1-5.2-2.7-7.5c-1.6-2.3-3.7-3.7-6.2-4.4l-0.3,9.1c0,0.8-0.7,1.5-2,2.2s-2.5,1-3.7,1c-0.6,0-1.1-0.1-1.5-0.3   c-0.4-0.2-0.6-0.6-0.6-1.1l0.2-8.7c-0.5-0.4-0.8-0.8-0.8-1.3c0-0.6,0.3-1.2,0.9-1.7c0.2-7.6,0.5-15.3,0.8-22.9   c0-0.9,0.6-1.7,1.8-2.3c1.2-0.7,2.3-1,3.5-1c0.9,0,1.5,0.2,1.9,0.6c4.6,1.3,9.3,2.6,14.2,4.2c0.8-0.2,1.3-0.3,1.6-0.3   c0.7,0,1.3,0.2,1.7,0.5c0.4,0.3,0.6,0.8,0.6,1.4c0,1.7-0.6,3.3-1.7,4.8c-1.1,1.4-2.7,3.1-4.7,4.8l-1.3,1.1c-2,2-4,3.7-5.9,5.2   c3.4,1,6.2,2.9,8.3,5.7c0.2-0.4,0.6-1.5,1.3-3.1C97.4,28,98.1,27.4,99.2,26.9z M86.9,19.8c1.6-1.3,3-2.5,4-3.5c1-1,1.8-2,2.4-3   c-2.3-0.6-5.6-1.6-10.1-2.9l-0.3,12.8c1.3-1.1,2-1.7,2.2-1.9L86.9,19.8z"></path>	<path class="st1" d="M128.8,23.5c0.9,1.1,1.3,2.3,1.3,3.7c0,0.8-0.2,1.7-0.5,2.5c-0.8,1.7-2,3.3-3.7,4.7c-1.7,1.4-3.7,2.8-6,4.2   c-4.9,2.9-9.2,4.4-13,4.6c-0.7,0-1.2-0.1-1.7-0.4c-0.5-0.3-0.7-0.8-0.7-1.3c0-0.6,0.3-1.2,0.8-1.7c0.5-0.5,1.2-0.9,2-1.3v-0.2   c0-8.3,0.9-16.6,2.8-25c0.2-0.8,0.9-1.6,2.2-2.2c1.3-0.7,2.5-1,3.7-1c0.7,0,1.2,0.1,1.5,0.4c0.4,0.3,0.5,0.7,0.3,1.2   c-0.5,2-0.9,4.1-1.2,6.5c1.6-0.8,2.8-1.9,3.9-3.2c1-1.3,1.5-2.6,1.5-4c0-2-1.5-3-4.3-3c-1.6,0-3.1,0.3-4.5,0.8   c-0.9,0.3-1.7,0.4-2.3,0.4c-1.3,0-2-0.5-2-1.5c0-0.9,0.8-1.7,2.3-2.5c1.3-0.7,2.9-1.2,4.7-1.7c1.8-0.4,3.7-0.7,5.4-0.7   c2.4,0,4.4,0.5,5.9,1.5c1.5,1,2.2,2.6,2.2,4.8c0,2.1-0.7,4.1-2.1,6c-1.4,2-3.3,3.7-5.5,5.2c1.3,0.1,2.5,0.3,3.6,0.8   C126.8,21.6,127.9,22.4,128.8,23.5z M122,27.3c-0.4-0.6-0.9-1-1.5-1.4c-0.8-0.4-1.7-0.6-2.6-0.6c-0.4,0-1.1,0.1-2,0.3   c-0.3,3.1-0.5,6.7-0.6,10.6c2.1-1,3.8-2.1,5.2-3.4c1.4-1.3,2.1-2.5,2.1-3.7C122.6,28.5,122.4,27.9,122,27.3z"></path>	<path class="st1" d="M153.7,15.8c0.9,3.8,2,8.1,3.3,12.9c1.2,4.6,2,7.7,2.4,9.2c0,0.1,0.1,0.3,0.1,0.6c0,1-0.6,1.9-1.7,2.6   c-1.1,0.7-2.3,1.1-3.5,1.1c-1,0-1.8-0.3-2.3-0.8c-1.2-1.3-2.5-2.5-3.8-3.7c-1.3-1.2-3.1-2.6-5.3-4.3l-2.1-1.7   c-1.8,3.8-3.1,6.6-4.1,8.4c-0.3,0.6-1.1,1.2-2.3,1.7c-1.2,0.5-2.4,0.8-3.4,0.8c-1.2,0-1.8-0.4-1.8-1.1c0-0.2,0.1-0.5,0.2-0.8   c1.3-3.1,2.7-6.7,4.5-10.7l1.3-3.2l-1.6-1.6c-0.3-0.3-0.4-0.6-0.4-1c0-0.7,0.5-1.4,1.4-2c0.9-0.7,2-1.1,3.1-1.3   c2-4.8,3.9-9.7,5.7-14.7c0.2-0.6,0.7-1.1,1.6-1.5c0.9-0.4,1.9-0.7,2.9-0.9c0.7-0.2,1.3-0.3,1.8-0.3c1.2,0,1.8,0.4,2,1.3   C152.1,8.4,152.8,12.1,153.7,15.8z M144.3,23.1l-0.5,1.3l4.4,3.7l-0.4-1.8c-0.3-1.2-0.9-3.7-1.8-7.5L144.3,23.1z"></path>	<path class="st1" d="M184.3,27.9c0,3.3,0.1,6.6,0.4,10c0.1,0.3,0.1,0.5,0.1,0.6c0,0.1,0,0.3-0.1,0.6c0,0,0,0.1-0.1,0.1v0.1   c-0.3,0.7-0.8,1.3-1.8,1.9c-0.9,0.5-1.9,0.8-3,0.9c-1.7,0.2-2.7-0.3-3-1.3c-1.5-3.9-3.8-9.4-7-16.4l-0.8-1.8   c-0.3,5.2-0.5,10.9-0.6,16.8c0,0.9-0.6,1.7-1.8,2.4c-1.2,0.7-2.4,1-3.6,1c-0.8,0-1.4-0.1-1.8-0.4c-0.5-0.3-0.7-0.8-0.6-1.4   c0.3-11.4,1.1-22.2,2.5-32.4l0.1-0.3c-0.1-0.9,0.5-1.8,1.7-2.5c1.2-0.8,2.4-1.1,3.7-1.1c1.3,0,2,0.4,2.3,1.3   c1.3,3.7,3.3,8.4,6,14.1c0.3-3.9,0.7-8,1.3-12c0.1-0.8,0.8-1.6,2-2.2c1.2-0.6,2.4-1,3.6-1c1.5,0,2.2,0.5,2,1.6   C184.8,13.9,184.3,21.1,184.3,27.9z"></path>	<path class="st1" d="M231.8,21c0.3,2.7,0.4,5.5,0.4,8.6c0,3.4-0.2,6.7-0.6,9.8c-0.1,0.8-0.8,1.6-2,2.2c-1.2,0.7-2.3,1-3.5,1   c-0.7,0-1.2-0.1-1.6-0.4c-0.4-0.3-0.5-0.7-0.5-1.3c0.4-3.9,0.6-7.3,0.6-10.3c-1.3,3.3-5.3,11.5-14.8,11.2c-0.6,0-1.3-0.1-1.9-0.2   c-2.7-0.5-6.4-2.2-7.6-4.3c-1.2-2-1.8-4.5-1.8-7.5c0-2.9,0.3-8.2,1.2-11.6C204.6,0.9,218,2.4,220.6,2.4c2.2,0,3.8,0.4,4.8,1.3   c1,0.8,1.5,2,1.5,3.3c0,1.7-0.6,3.6-1.9,5.7c-1.3,2.1-1.7,2.6-3.1,3.7c-0.4,0.3-1,0.5-1.7,0.7c-0.7,0.2-1.4,0.3-2.1,0.3   c-0.8,0-1.4-0.1-1.8-0.3c-0.5-0.2-0.7-0.5-0.7-0.9c0.1-2.1,4.2-4.8,4-7.4c-0.1-0.8-0.4-1.2-1.3-1.2c-6.9,0.3-10.3,11.7-10.4,21.7   c-0.1,4.1,1.1,6.3,3.3,6.7c2.5,0.6,6-4.4,6.6-6.4c-0.5,0.3-1.4,0.7-2.5,1.2c-0.7,0.3-1.4,0.4-2.2,0.4c-0.8,0-1.5-0.2-1.9-0.6   c-0.3-0.3-0.4-0.6-0.4-0.9c0-0.4,0.1-0.7,0.3-1.1c0.2-0.4,0.5-0.6,0.9-0.9c8.5-5.8,13.5-7.9,15.2-8.8c0.4-0.2,0.8-0.3,1.4-0.3   c0.8,0,1.6,0.2,2.2,0.6c0.6,0.4,0.9,0.9,0.8,1.5C231.7,20.8,231.8,20.9,231.8,21z"></path>	<path class="st1" d="M257.1,6.1c1.2-0.7,2.3-1,3.5-1c0.7,0,1.2,0.1,1.6,0.4c0.4,0.3,0.6,0.7,0.6,1.3c-0.1,1.6-0.1,2.9-0.1,3.8   c-0.2,5.5-0.6,10.1-1.1,13.9c-0.5,3.8-1.7,7.4-3.5,10.8c-1.8,3.4-4.5,5.6-8.1,6.6c-1.2,0.3-2.4,0.5-3.5,0.5c-2.7,0-5-0.8-7.1-2.4   c-2-1.6-3.2-3.8-3.5-6.5c-0.1-1.1-0.1-1.9-0.1-2.5c0-2.9,0.4-5.9,1.3-8.9c0.9-3,2.2-6.7,3.8-11c0.5-1.1,1.1-2.6,1.7-4.3   c0.3-0.7,0.9-1.3,1.9-1.8c1-0.5,2.1-0.7,3.1-0.7c0.7,0,1.2,0.1,1.6,0.4c0.4,0.3,0.6,0.7,0.6,1.2c0,0.2,0,0.4-0.1,0.8   c-0.8,2.4-1.5,4.3-2,5.5c-1.2,3.4-2.2,6.2-2.8,8.5c-0.7,2.3-1.1,4.6-1.4,7c-0.1,1-0.1,1.8-0.1,2.4c0,2.5,0.6,4.3,1.8,5.4   c0.4,0.4,0.9,0.7,1.5,1c0.6,0.3,1.2,0.5,1.8,0.5l0.5,0.1c0,0,0.1-0.1,0.3-0.2c1.1-0.7,1.9-1.8,2.6-3.4c0.7-1.6,1.1-3.1,1.3-4.3   c0.2-1.3,0.5-3.3,0.9-6c0.3-2.2,0.5-4.7,0.7-7.3c0.2-2.6,0.3-5.2,0.5-7.7C255.4,7.5,256,6.8,257.1,6.1z"></path>	<path class="st1" d="M270.3,6.1c1.2-0.7,2.4-1,3.5-1c0.7,0,1.2,0.1,1.6,0.4c0.4,0.3,0.6,0.7,0.6,1.3l-1.8,34.2   c0,0.9-0.7,1.7-1.8,2.3c-1.2,0.7-2.4,1-3.5,1c-1.6,0-2.3-0.6-2.3-1.8l1.9-34.1C268.5,7.5,269.1,6.8,270.3,6.1z"></path>	<path class="st1" d="M307,17.9c0,0.3-0.1,0.6-0.3,0.9c-2.2,4.3-5.2,8.1-8.8,11.4c-3.7,3.3-8.1,6.6-13.3,10   c-0.5,0.3-1.1,0.6-1.7,0.8c-0.6,0.2-1.2,0.3-1.8,0.3c-0.6,0-1.2-0.2-1.6-0.5c-0.5-0.4-0.8-0.8-0.8-1.4c0-0.7,0.4-1.3,1.2-1.9   c0.1,0,0.2-0.1,0.3-0.2c0.1-0.1,0.2-0.2,0.4-0.3l0.3-15.6c0.1-3.4,0.2-8.6,0.3-15.6c0-0.1-0.1-0.2-0.1-0.4c0-0.1,0-0.3,0.1-0.6V4.1   c0-0.8,0.6-1.5,1.6-2s2.2-0.9,3.3-0.9c0.8,0,1.4,0.1,1.9,0.4c0.5,0.3,0.7,0.8,0.7,1.4v0.6c5.1,7,10.6,11.3,16.6,12.9   c0.6,0.2,1,0.4,1.2,0.6C306.8,17.3,307,17.6,307,17.9z M298.7,20.5c-3.4-1-6.7-3-10.1-6.1c-0.1,3.8-0.2,9.5-0.3,16.9   C292.7,28,296.2,24.4,298.7,20.5z"></path>	<path class="st1" d="M331.9,36.7c0,0.7-0.4,1.4-1.2,2.2c-0.9,0.9-2,1.3-3.4,1.3c-0.7,0-1.2-0.1-1.7-0.3c-2.2-0.7-4.2-1.1-6-1.1   c-3.2,0-6.4,1-9.6,3c-0.5,0.4-1.2,0.7-2,0.9c-0.8,0.2-1.5,0.3-2.2,0.3c-0.6,0-1.1-0.1-1.5-0.3s-0.6-0.6-0.6-1.1   c0-0.3,0-0.5,0.1-0.8c1.2-3.4,2.2-6.5,2.9-9.2c0.7-2.7,1.2-5.5,1.5-8.3c0.4-3.8,0.6-6.6,0.6-8.3c0-4.7-0.9-8.2-2.7-10.7   c-0.2-0.3-0.3-0.6-0.3-1c0-0.8,0.6-1.6,1.8-2.4c1.2-0.7,2.3-1.1,3.5-1.1c0.8,0,1.3,0.2,1.6,0.5c0.5,0.2,0.9,0.5,1.1,1   c1.1,2.8,2.5,5.1,4.3,7c1.8,1.9,4,2.9,6.6,2.9c0.5,0,1.2-0.1,2.1-0.3c0.6-0.1,1-0.1,1.1-0.1c0.7,0,1.2,0.2,1.6,0.5   c0.4,0.3,0.5,0.7,0.5,1.3c0,0.6-0.2,1.2-0.7,1.8c-0.5,0.6-1.1,1-1.9,1.3c-1.7,0.6-3.4,0.9-5.2,0.9c-2.1,0-4-0.4-5.9-1.3   c-0.1,2.4-0.2,4.1-0.3,5.3l-0.4,4c1.6-0.3,3.3-0.5,4.9-0.8l0.9-0.1c1.7,0,2.5,0.6,2.5,1.7c0,0.8-0.4,1.4-1.3,2s-1.7,1-2.6,1.1   c-1.3,0.3-3.1,0.5-5.4,0.8c-0.5,2.1-1,4-1.5,5.8c2.8-1,5.6-1.5,8.4-1.5c3.1,0,6.3,0.6,9.4,1.8C331.6,35.8,331.9,36.2,331.9,36.7z"></path></g></svg>